<svg xmlns="http://www.w3.org/2000/svg" width="1200" height="800" viewBox="0 0 1200 800" role="img" aria-label="PLACEHOLDER: Odisha State Museum, replace with a real photo you own">
  <defs>
    <linearGradient id="skyg22" x1="0" y1="0" x2="0" y2="1">
      <stop offset="0%" stop-color="#EFE3CC"/>
      <stop offset="100%" stop-color="#D9C39A"/>
    </linearGradient>
    <linearGradient id="seag22" x1="0" y1="0" x2="0" y2="1">
      <stop offset="0%" stop-color="#4A4436"/>
      <stop offset="100%" stop-color="#2E2A1E"/>
    </linearGradient>
    <radialGradient id="glowg22" cx="0.5" cy="0.5" r="0.5">
      <stop offset="0%" stop-color="#FBE9C8" stop-opacity="0.95"/>
      <stop offset="60%" stop-color="#F3D9A4" stop-opacity="0.45"/>
      <stop offset="100%" stop-color="#F3D9A4" stop-opacity="0"/>
    </radialGradient>
    <filter id="graing22">
      <feTurbulence type="fractalNoise" baseFrequency="0.9" numOctaves="2" stitchTiles="stitch" result="n"/>
      <feColorMatrix in="n" type="matrix" values="0 0 0 0 0  0 0 0 0 0  0 0 0 0 0  0.6 0.6 0.6 0 0"/>
      <feComposite operator="in" in2="SourceGraphic"/>
    </filter>
  </defs><rect width="1200" height="800" fill="url(#skyg22)"/><rect width="1200" height="800" fill="#F0E6D2"/>
    <rect x="216" y="224" width="768" height="352" fill="#7B1E2B" opacity="0.9"/>
    <rect x="344" y="192" width="32" height="80" fill="#B98A3B"/><rect x="512" y="192" width="32" height="80" fill="#B98A3B"/><rect x="680" y="192" width="32" height="80" fill="#B98A3B"/><rect x="848" y="192" width="32" height="80" fill="#B98A3B"/>
    <rect x="216" y="192" width="768" height="32" fill="#2A1B14"/>
    <g fill="none" stroke="#FBF6EC" stroke-width="1.5" opacity="0.9"><path d="M 600 400 Q 541.7 293.3 600 336 Q 658.3 293.3 600 400"/><path d="M 600 400 Q 683.5 311.6 660.9 380.2 Q 719.5 422.5 600 400"/><path d="M 600 400 Q 709.9 452.1 637.6 451.8 Q 615.6 520.6 600 400"/><path d="M 600 400 Q 584.4 520.6 562.4 451.8 Q 490.1 452.1 600 400"/><path d="M 600 400 Q 480.5 422.5 539.1 380.2 Q 516.5 311.6 600 400"/></g>
  <g>
    <circle cx="600" cy="352" r="60" fill="#2A1B14" opacity="0.92"/>
    <circle cx="600" cy="352" r="60" fill="none" stroke="#B98A3B" stroke-width="3.6"/>
    <text x="600" y="372.8" text-anchor="middle" font-family="Georgia, serif" font-weight="bold" font-size="67.2" fill="#B98A3B" letter-spacing="-0.5">SR</text>
    <text x="600" y="460" text-anchor="middle" font-family="Georgia, serif" font-size="22.4" fill="#2A1B14" opacity="0.85" letter-spacing="2">PLACEHOLDER · REAL PHOTO COMING</text>
  </g>
</svg>