<svg xmlns="http://www.w3.org/2000/svg" width="1200" height="900" viewBox="0 0 1200 900" role="img" aria-label="PLACEHOLDER: single room, replace with real photo">
  <defs>
    <linearGradient id="skyg16" x1="0" y1="0" x2="0" y2="1">
      <stop offset="0%" stop-color="#EFE3CC"/>
      <stop offset="100%" stop-color="#D9C39A"/>
    </linearGradient>
    <linearGradient id="seag16" x1="0" y1="0" x2="0" y2="1">
      <stop offset="0%" stop-color="#4A4436"/>
      <stop offset="100%" stop-color="#2E2A1E"/>
    </linearGradient>
    <radialGradient id="glowg16" cx="0.5" cy="0.5" r="0.5">
      <stop offset="0%" stop-color="#FBE9C8" stop-opacity="0.95"/>
      <stop offset="60%" stop-color="#F3D9A4" stop-opacity="0.45"/>
      <stop offset="100%" stop-color="#F3D9A4" stop-opacity="0"/>
    </radialGradient>
    <filter id="graing16">
      <feTurbulence type="fractalNoise" baseFrequency="0.9" numOctaves="2" stitchTiles="stitch" result="n"/>
      <feColorMatrix in="n" type="matrix" values="0 0 0 0 0  0 0 0 0 0  0 0 0 0 0  0.6 0.6 0.6 0 0"/>
      <feComposite operator="in" in2="SourceGraphic"/>
    </filter>
  </defs>
  <rect width="1200" height="900" fill="#F0E6D2"/>
  <rect width="1200" height="702" fill="#EFE0C4"/>
  <rect y="702" width="1200" height="198" fill="#D9C29B"/>
  <circle cx="936" cy="180" r="201.6" fill="url(#glowg16)" opacity="0.55"/>
<circle cx="936" cy="180" r="63" fill="#F6DFB2" opacity="0.55"/>
  <g>
    <rect x="96" y="468" width="600" height="180" rx="27" fill="#FBF3E2"/>
    <rect x="114" y="441" width="564" height="63" rx="27" fill="#F6EAD0"/>
    <rect x="120" y="405" width="90" height="63" rx="18" fill="#FFFDF6"/>
    <rect x="228" y="405" width="90" height="63" rx="18" fill="#FFFDF6"/>
    <rect x="96" y="648" width="21.6" height="54" fill="#8A6A44"/><rect x="444" y="648" width="21.6" height="54" fill="#8A6A44"/>
    <rect x="792" y="522" width="126" height="126" rx="14.4" fill="#5A4E46"/>
    <rect x="804" y="531" width="108" height="108" rx="9" fill="#2A1B14"/>
    <circle cx="876" cy="585" r="5.4" fill="#6B7B74"/>
  </g>
  <g fill="none" stroke="#B98A3B" stroke-width="1.5" opacity="0.5"><path d="M 1032 126 Q 991 51 1032 81 Q 1073 51 1032 126"/><path d="M 1032 126 Q 1090.7 63.8 1074.8 112.1 Q 1116 141.8 1032 126"/><path d="M 1032 126 Q 1109.3 162.6 1058.5 162.4 Q 1042.9 210.8 1032 126"/><path d="M 1032 126 Q 1021.1 210.8 1005.5 162.4 Q 954.7 162.6 1032 126"/><path d="M 1032 126 Q 948 141.8 989.2 112.1 Q 973.3 63.8 1032 126"/></g>
  
  <g>
    <circle cx="600" cy="396" r="67.5" fill="#2A1B14" opacity="0.92"/>
    <circle cx="600" cy="396" r="67.5" fill="none" stroke="#B98A3B" stroke-width="4.1"/>
    <text x="600" y="419.4" text-anchor="middle" font-family="Georgia, serif" font-weight="bold" font-size="75.6" fill="#B98A3B" letter-spacing="-0.5">SR</text>
    <text x="600" y="517.5" text-anchor="middle" font-family="Georgia, serif" font-size="25.2" fill="#2A1B14" opacity="0.85" letter-spacing="2">PLACEHOLDER · REAL PHOTO COMING</text>
  </g>
</svg>