<svg xmlns="http://www.w3.org/2000/svg" width="1200" height="800" viewBox="0 0 1200 800" role="img" aria-label="PLACEHOLDER: Jagannath Temple, replace with a real photo you own">
  <defs>
    <linearGradient id="skyg7" x1="0" y1="0" x2="0" y2="1">
      <stop offset="0%" stop-color="#F3E3C2"/>
      <stop offset="100%" stop-color="#E7C9A1"/>
    </linearGradient>
    <linearGradient id="seag7" x1="0" y1="0" x2="0" y2="1">
      <stop offset="0%" stop-color="#3E6B5A"/>
      <stop offset="100%" stop-color="#23503F"/>
    </linearGradient>
    <radialGradient id="glowg7" cx="0.5" cy="0.5" r="0.5">
      <stop offset="0%" stop-color="#FBE9C8" stop-opacity="0.95"/>
      <stop offset="60%" stop-color="#F3D9A4" stop-opacity="0.45"/>
      <stop offset="100%" stop-color="#F3D9A4" stop-opacity="0"/>
    </radialGradient>
    <filter id="graing7">
      <feTurbulence type="fractalNoise" baseFrequency="0.9" numOctaves="2" stitchTiles="stitch" result="n"/>
      <feColorMatrix in="n" type="matrix" values="0 0 0 0 0  0 0 0 0 0  0 0 0 0 0  0.6 0.6 0.6 0 0"/>
      <feComposite operator="in" in2="SourceGraphic"/>
    </filter>
  </defs><rect width="1200" height="800" fill="url(#skyg7)"/><circle cx="600" cy="240" r="204.8" fill="url(#glowg7)" opacity="0.9"/>
<circle cx="600" cy="240" r="64" fill="#F6DFB2" opacity="0.9"/>
    <g fill="#2A1B14" opacity="0.95">
  <rect x="380.8" y="493.4" width="438.5" height="66.6"/>
  <rect x="424.6" y="418.6" width="350.8" height="83.2"/>
  <rect x="471" y="352" width="257.9" height="83.2"/>
  <path d="M 512.3 352
           C 491.7 185.6, 548.4 102.4, 600 10.9
           C 651.6 102.4, 708.3 185.6, 687.7 352 Z"/>
  <rect x="584.5" y="-39" width="31" height="49.9"/>
  <circle cx="600" cy="-64" r="20.8"/>
</g>
    <rect y="560" width="1200" height="240" fill="#23503F" opacity="0.35"/>
  <g>
    <circle cx="600" cy="352" r="60" fill="#2A1B14" opacity="0.92"/>
    <circle cx="600" cy="352" r="60" fill="none" stroke="#B98A3B" stroke-width="3.6"/>
    <text x="600" y="372.8" text-anchor="middle" font-family="Georgia, serif" font-weight="bold" font-size="67.2" fill="#B98A3B" letter-spacing="-0.5">SR</text>
    <text x="600" y="460" text-anchor="middle" font-family="Georgia, serif" font-size="22.4" fill="#2A1B14" opacity="0.85" letter-spacing="2">PLACEHOLDER · REAL PHOTO COMING</text>
  </g>
</svg>