<svg xmlns="http://www.w3.org/2000/svg" width="1600" height="900" viewBox="0 0 1600 900" role="img" aria-label="PLACEHOLDER: property walkthrough video, replace with real video">
  <defs>
    <linearGradient id="skyg6" x1="0" y1="0" x2="0" y2="1">
      <stop offset="0%" stop-color="#F3E3C2"/>
      <stop offset="100%" stop-color="#E7C9A1"/>
    </linearGradient>
    <linearGradient id="seag6" x1="0" y1="0" x2="0" y2="1">
      <stop offset="0%" stop-color="#3E6B5A"/>
      <stop offset="100%" stop-color="#23503F"/>
    </linearGradient>
    <radialGradient id="glowg6" cx="0.5" cy="0.5" r="0.5">
      <stop offset="0%" stop-color="#FBE9C8" stop-opacity="0.95"/>
      <stop offset="60%" stop-color="#F3D9A4" stop-opacity="0.45"/>
      <stop offset="100%" stop-color="#F3D9A4" stop-opacity="0"/>
    </radialGradient>
    <filter id="graing6">
      <feTurbulence type="fractalNoise" baseFrequency="0.9" numOctaves="2" stitchTiles="stitch" result="n"/>
      <feColorMatrix in="n" type="matrix" values="0 0 0 0 0  0 0 0 0 0  0 0 0 0 0  0.6 0.6 0.6 0 0"/>
      <feComposite operator="in" in2="SourceGraphic"/>
    </filter>
  </defs>
  <rect width="1600" height="900" fill="#2A1B14"/>
  <circle cx="800" cy="324" r="288" fill="url(#glowg6)" opacity="0.35"/>
<circle cx="800" cy="324" r="90" fill="#F6DFB2" opacity="0.35"/>
  <g fill="#3E2A1E" opacity="0.95">
  <rect x="638.7" y="599" width="322.5" height="49"/>
  <rect x="671" y="544" width="258" height="61.2"/>
  <rect x="705.1" y="495" width="189.7" height="61.2"/>
  <path d="M 735.5 495
           C 720.3 372.6, 762.1 311.4, 800 244.1
           C 837.9 311.4, 879.7 372.6, 864.5 495 Z"/>
  <rect x="788.6" y="207.4" width="22.8" height="36.7"/>
  <circle cx="800" cy="189" r="15.3"/>
</g>
  <rect y="648" width="1600" height="252" fill="#1E120C"/>
  <g fill="none" stroke="#B98A3B" stroke-width="1.5" opacity="0.8"><path d="M 800 756 Q 750.8 666 800 702 Q 849.2 666 800 756"/><path d="M 800 756 Q 870.4 681.4 851.4 739.3 Q 900.8 775 800 756"/><path d="M 800 756 Q 892.7 799.9 831.7 799.7 Q 813.1 857.8 800 756"/><path d="M 800 756 Q 786.9 857.8 768.3 799.7 Q 707.3 799.9 800 756"/><path d="M 800 756 Q 699.2 775 748.6 739.3 Q 729.6 681.4 800 756"/></g>
  
  <g>
    <text x="800" y="855" text-anchor="middle" font-family="Georgia, serif" font-size="19.8" fill="#FBF6EC" opacity="0.75" letter-spacing="3">PLACEHOLDER · REAL PHOTO COMING</text>
  </g>
</svg>